<?xml version="1.0" encoding="utf-8"?>
<!-- Generator: Adobe Illustrator 15.1.0, SVG Export Plug-In . SVG Version: 6.00 Build 0)  -->
<!DOCTYPE svg PUBLIC "-//W3C//DTD SVG 1.1//EN" "http://www.w3.org/Graphics/SVG/1.1/DTD/svg11.dtd">
<svg version="1.1" id="Layer_1" xmlns="http://www.w3.org/2000/svg" xmlns:xlink="http://www.w3.org/1999/xlink" x="0px" y="0px"
	 width="253.5px" height="142px" viewBox="0 0 253.5 142" enable-background="new 0 0 253.5 142" xml:space="preserve">
<path fill="#FFFFFF" d="M240.694,11.096h-0.963v1.303h0.963c0.326,0,0.684-0.248,0.684-0.635
	C241.378,11.343,241.021,11.096,240.694,11.096 M241.317,14.386l-0.979-1.491h-0.604v1.491h-0.574v-3.771h1.535
	c0.638,0,1.272,0.45,1.272,1.149c0,0.836-0.745,1.116-0.963,1.116l1.01,1.506H241.317z M240.431,9.746
	c-1.521,0-2.746,1.21-2.746,2.747c0,1.505,1.228,2.747,2.746,2.747c1.52,0,2.747-1.242,2.747-2.747
	C243.178,10.957,241.95,9.746,240.431,9.746 M240.431,15.783c-1.814,0-3.289-1.474-3.289-3.29c0-1.832,1.475-3.291,3.289-3.291
	c1.832,0,3.291,1.459,3.291,3.291C243.722,14.309,242.263,15.783,240.431,15.783"/>
<rect x="128.458" y="130.277" fill="#EF3E33" width="14.09" height="3.297"/>
<rect x="100.298" y="130.277" fill="#00953A" width="14.092" height="3.297"/>
<rect x="114.39" y="130.277" fill="#FFFFFF" width="14.09" height="3.297"/>
<path fill="#FFFFFF" d="M9.778,34.123c0-15.343,11.619-25.697,26.887-25.697c11.992,0,18.471,6.778,21.673,13.259l-11.022,5.289
	c-1.638-3.949-5.885-7.227-10.651-7.227c-8.118,0-13.853,6.182-13.853,14.375c0,8.119,5.735,14.375,13.853,14.375
	c4.766,0,9.013-3.277,10.651-7.225l11.022,5.213c-3.202,6.33-9.682,13.332-21.673,13.332C21.397,59.819,9.778,49.391,9.778,34.123"
	/>
<rect x="73.107" y="9.246" fill="#FFFFFF" width="12.811" height="49.68"/>
<rect x="128.282" y="30.327" fill="#FFFFFF" width="12.886" height="28.598"/>
<path fill="#FFFFFF" d="M153.271,21.444h-35.938v37.479h-12.811V9.246h16.448h29.631h5.592c0,0,10.004-0.124,10.004,11.17v38.509
	h-12.812L153.271,21.444z"/>
<path fill="#FFFFFF" d="M206.553,48.498c-8.192,0-13.557-6.331-13.557-14.375c0-8.119,5.362-14.375,13.557-14.375
	c8.192,0,13.479,6.257,13.479,14.375C220.032,42.167,214.745,48.498,206.553,48.498 M206.553,8.425
	c-15.194,0-26.589,10.576-26.589,25.697c0,15.12,11.395,25.696,26.589,25.696c15.193,0,26.515-10.576,26.515-25.696
	C233.067,19.001,221.746,8.425,206.553,8.425"/>
<path fill="#FFFFFF" d="M66.679,93.184c0-3.979,2.994-6.666,6.878-6.666c2.82,0,4.462,1.525,5.371,3.148l-2.357,1.16
	c-0.54-1.045-1.699-1.875-3.014-1.875c-2.357,0-4.058,1.799-4.058,4.23c0,2.436,1.701,4.232,4.058,4.232
	c1.314,0,2.474-0.832,3.014-1.875l2.357,1.141c-0.908,1.604-2.55,3.17-5.371,3.17C69.673,99.85,66.679,97.143,66.679,93.184"/>
<path fill="#FFFFFF" d="M98.256,89.473l-2.009,5.545h4.02L98.256,89.473z M101.832,99.617l-0.812-2.182h-5.525l-0.812,2.182h-3.111
	l4.966-12.887h3.438l4.966,12.887H101.832z"/>
<polygon fill="#FFFFFF" points="119.415,99.617 119.415,86.73 128.534,86.73 128.534,89.145 122.157,89.145 122.157,91.85 
	128.399,91.85 128.399,94.266 122.157,94.266 122.157,99.617 "/>
<polygon fill="#FFFFFF" points="143.937,99.617 143.937,86.73 153.054,86.73 153.054,89.145 146.679,89.145 146.679,91.85 
	152.92,91.85 152.92,94.266 146.679,94.266 146.679,99.617 "/>
<polygon fill="#FFFFFF" points="168.954,99.617 168.954,86.73 178.073,86.73 178.073,89.145 171.698,89.145 171.698,91.85 
	177.938,91.85 177.938,94.266 171.698,94.266 171.698,97.201 178.073,97.201 178.073,99.617 "/>
<polygon fill="#FFFFFF" points="202.94,95.99 202.94,91.398 202.001,92.375 201.284,91.621 203.108,89.791 204.194,89.791 
	204.194,95.99 "/>
<path fill="#FFFFFF" d="M210.839,92.113c-0.037-0.584-0.24-1.318-0.938-1.318c-0.567,0-0.848,0.5-0.848,0.957
	c0,0.725,0.428,0.994,0.864,0.994C210.319,92.746,210.635,92.467,210.839,92.113 M208.042,95.424l0.595-0.92
	c0.251,0.314,0.538,0.482,0.978,0.482c0.789,0,1.234-0.873,1.234-1.842v-0.119c-0.242,0.428-0.744,0.789-1.32,0.789
	c-0.93,0-1.735-0.697-1.735-2.016c0-1.199,0.817-2.109,2.035-2.109c1.636,0,2.274,1.479,2.274,3.205
	c0,1.852-0.873,3.197-2.479,3.197C208.972,96.092,208.403,95.832,208.042,95.424"/>
<path fill="#FFFFFF" d="M218.247,91.52c0-0.455-0.314-0.732-0.799-0.732c-0.491,0-0.81,0.277-0.81,0.732
	c0,0.529,0.566,0.771,0.81,0.826C217.682,92.291,218.247,92.049,218.247,91.52 M218.332,94.242c0-0.596-0.632-0.9-0.884-0.938
	c-0.26,0.035-0.883,0.344-0.883,0.938c0,0.492,0.381,0.771,0.883,0.771C217.933,95.014,218.332,94.734,218.332,94.242
	 M215.312,94.41c0-0.754,0.549-1.375,1.183-1.617c-0.587-0.213-1.099-0.717-1.099-1.479c0-1.135,1.031-1.617,2.055-1.617
	c1.005,0,2.055,0.482,2.055,1.617c0,0.762-0.521,1.266-1.105,1.479c0.635,0.24,1.188,0.863,1.188,1.607
	c0,1.105-0.91,1.701-2.138,1.701C216.214,96.102,215.312,95.508,215.312,94.41"/>
<polygon fill="#FFFFFF" points="17.334,95.99 17.334,89.791 20.883,89.791 20.883,90.887 18.579,90.887 18.579,92.291 
	20.819,92.291 20.819,93.389 18.579,93.389 18.579,94.895 20.883,94.895 20.883,95.99 "/>
<path fill="#FFFFFF" d="M24.193,95.303l0.613-0.957c0.343,0.381,0.882,0.658,1.497,0.658c0.548,0,0.845-0.307,0.845-0.688
	c0-1.086-2.77-0.717-2.77-2.814c0-0.977,0.763-1.814,2.045-1.814c0.752,0,1.403,0.242,1.877,0.689l-0.596,0.928
	c-0.371-0.354-0.845-0.52-1.328-0.52c-0.447,0-0.726,0.252-0.726,0.633c0,0.967,2.76,0.707,2.76,2.797
	c0,1.088-0.743,1.887-2.1,1.887C25.372,96.102,24.685,95.795,24.193,95.303"/>
<polygon fill="#FFFFFF" points="32.928,95.99 32.928,90.887 31.553,90.887 31.553,89.791 35.549,89.791 35.549,90.887 
	34.174,90.887 34.174,95.99 "/>
<path fill="#FFFFFF" d="M41.415,91.908c0-0.836-0.331-1.367-0.972-1.367H39.93v2.732h0.513
	C41.072,93.273,41.415,92.715,41.415,91.908 M39.081,94.021v-4.23h1.363c1.167,0,1.84,0.875,1.84,2.117
	c0,1.244-0.665,2.113-1.84,2.113H39.081z"/>
<rect x="39.046" y="95.48" fill="#FFFFFF" width="3.336" height="0.744"/>
<path fill="#FFFFFF" d="M223.876,90.727l-0.135,1.455h0.018c0.12-0.168,0.277-0.291,0.471-0.367
	c0.192-0.072,0.426-0.109,0.702-0.109c0.308,0,0.562,0.059,0.765,0.174c0.201,0.119,0.359,0.271,0.479,0.467
	c0.118,0.191,0.2,0.41,0.248,0.654c0.049,0.244,0.072,0.492,0.072,0.744c0,0.354-0.03,0.678-0.091,0.967s-0.168,0.537-0.32,0.744
	c-0.152,0.209-0.361,0.363-0.627,0.469c-0.266,0.107-0.604,0.16-1.014,0.16c-0.401,0-0.729-0.057-0.979-0.164
	s-0.439-0.25-0.572-0.428c-0.133-0.18-0.223-0.371-0.268-0.578c-0.044-0.209-0.066-0.402-0.066-0.582V94.16h1.246
	c0,0.107,0.006,0.223,0.018,0.344c0.014,0.119,0.041,0.23,0.086,0.338c0.046,0.104,0.109,0.191,0.193,0.262
	c0.084,0.068,0.196,0.104,0.334,0.104c0.271,0,0.465-0.104,0.584-0.311c0.117-0.209,0.176-0.521,0.176-0.936
	c0-0.266-0.014-0.484-0.037-0.66c-0.021-0.174-0.062-0.312-0.12-0.414c-0.058-0.104-0.136-0.176-0.229-0.217
	c-0.098-0.043-0.219-0.064-0.363-0.064c-0.187,0-0.33,0.053-0.428,0.158c-0.101,0.105-0.162,0.248-0.186,0.43h-1.165l0.233-3.477
	h3.334v1.012h-2.359V90.727z"/>
</svg>
