<svg xmlns="http://www.w3.org/2000/svg" version="1.0" width="3174.000000pt" height="1634.000000pt" viewBox="0 0 3174.000000 1634.000000" preserveAspectRatio="xMidYMid meet">

<g transform="translate(0.000000,1634.000000) scale(0.100000,-0.100000)" fill="#c4c4c4" stroke="none">
<path d="M21700 15379 c-2898 -133 -5545 -1263 -7470 -3189 -984 -984 -1771 -2158 -2362 -3520 -173 -398 -327 -813 -488 -1310 -236 -729 -440 -1264 -615 -1610 -214 -423 -438 -743 -710 -1016 -456 -459 -879 -659 -1467 -694 -495 -29 -894 81 -1183 326 l-69 58 24 -40 c89 -148 250 -335 377 -436 142 -112 334 -205 516 -248 288 -68 706 -68 1019 0 388 85 759 307 1109 666 155 159 260 291 394 493 133 202 205 328 324 569 167 340 391 938 621 1662 466 1462 1210 2845 2129 3955 1095 1321 2457 2335 4051 3015 1757 749 3747 1062 5690 895 2007 -173 3770 -858 5059 -1965 149 -128 428 -399 566 -550 l78 -85 -91 120 c-398 528 -913 1006 -1530 1419 -1339 897 -2994 1398 -4912 1486 -246 11 -802 11 -1060 -1z" fill="#c4c4c4"/>
<path d="M29952 12625 c279 -423 510 -903 661 -1370 372 -1155 365 -2404 -24 -3706 -103 -347 -329 -994 -480 -1374 -79 -199 -261 -566 -369 -745 -180 -296 -322 -482 -530 -691 -349 -350 -653 -536 -1034 -634 -184 -47 -356 -67 -576 -67 -445 -1 -774 101 -1035 320 -43 35 -74 58 -69 51 157 -261 354 -461 574 -582 223 -122 479 -177 830 -177 533 0 900 119 1305 425 266 201 499 452 705 760 243 363 408 696 600 1210 418 1116 587 1768 656 2535 21 229 24 768 5 985 -94 1109 -463 2079 -1119 2950 -160 212 -188 243 -100 110z" fill="#c4c4c4"/>
<path d="M20876 11553 c-3 -10 -67 -243 -141 -518 -149 -547 -346 -1255 -515 -1855 -306 -1086 -665 -2455 -765 -2925 -125 -584 -142 -923 -59 -1168 32 -94 65 -147 120 -195 43 -38 128 -81 139 -70 3 3 0 52 -6 109 -33 314 42 725 346 1909 189 736 296 1131 674 2475 143 509 462 1675 554 2021 l35 131 -182 51 c-100 29 -185 52 -188 52 -4 0 -9 -8 -12 -17z" fill="#c4c4c4"/>
<path d="M2226 9988 c-9 -29 -29 -102 -45 -162 -17 -59 -32 -110 -35 -113 -2 -2 -57 11 -123 30 -65 20 -126 37 -137 39 -16 3 -24 -15 -56 -132 -25 -91 -33 -137 -26 -141 26 -15 638 -191 643 -185 16 15 170 608 159 612 -24 8 -356 104 -361 104 -2 0 -11 -24 -19 -52z" fill="#c4c4c4"/>
<path d="M24930 9578 c0 -3 14 -48 31 -100 16 -51 39 -147 51 -213 18 -105 20 -147 15 -340 -5 -192 -23 -364 -39 -380 -2 -3 -76 15 -164 40 -87 25 -162 45 -166 45 -5 0 -8 -20 -8 -45 0 -24 -5 -90 -11 -145 -7 -55 -10 -102 -8 -105 9 -9 652 -185 657 -180 16 16 33 184 39 370 6 234 -7 362 -53 523 -32 113 -109 270 -172 352 -48 63 -172 191 -172 178z" fill="#c4c4c4"/>
<path d="M10424 9544 c68 -168 95 -369 76 -560 -34 -335 -174 -666 -383 -902 -324 -364 -868 -596 -1595 -678 -85 -10 -275 -18 -498 -21 l-361 -6 -42 -136 c-112 -372 -174 -782 -175 -1161 -1 -252 7 -350 46 -529 56 -264 194 -522 348 -651 l48 -40 -29 74 c-183 471 -149 1230 88 1997 l17 56 361 6 c368 6 525 17 765 58 573 96 1064 332 1326 636 275 320 414 736 382 1139 -19 243 -99 435 -261 626 -65 75 -126 126 -113 92z" fill="#c4c4c4"/>
<path d="M16256 9488 c75 -217 81 -462 19 -725 -95 -399 -319 -725 -650 -945 -254 -169 -640 -311 -1025 -377 -235 -40 -399 -53 -769 -60 l-365 -6 -38 -140 c-121 -443 -190 -948 -174 -1275 22 -437 114 -726 306 -962 53 -66 130 -138 130 -123 0 4 -14 46 -31 93 -63 179 -95 364 -105 612 -15 358 64 893 196 1341 l20 66 363 6 c478 7 716 34 1042 117 525 133 921 375 1154 705 122 173 227 429 267 651 21 117 24 364 5 464 -26 140 -86 290 -165 408 -48 73 -157 196 -187 212 -16 9 -15 3 7 -62z" fill="#c4c4c4"/>
<path d="M29575 9544 c107 -258 107 -594 -1 -920 -191 -578 -636 -941 -1384 -1129 -314 -79 -546 -105 -1013 -112 l-367 -6 -25 -81 c-125 -413 -206 -968 -191 -1321 16 -398 87 -658 243 -894 54 -81 179 -218 189 -208 3 2 -7 35 -21 73 -35 94 -70 237 -92 374 -21 142 -24 527 -4 700 31 276 105 647 172 866 l31 101 362 6 c471 7 711 34 1031 114 287 72 563 189 772 329 347 231 580 598 659 1039 24 132 22 363 -4 485 -39 188 -129 363 -260 510 -67 74 -112 108 -97 74z" fill="#c4c4c4"/>
<path d="M6700 9539 c0 -3 13 -42 30 -86 53 -148 71 -258 77 -479 5 -172 -7 -398 -22 -412 -2 -2 -79 16 -172 41 l-168 44 0 -106 c0 -58 -4 -129 -8 -156 l-7 -50 326 -83 c179 -46 327 -82 329 -80 2 2 9 50 15 108 18 153 8 476 -20 603 -38 179 -119 363 -213 484 -43 56 -167 183 -167 172z" fill="#c4c4c4"/>
<path d="M9235 9506 c-376 -72 -771 -441 -1109 -1038 -67 -119 -209 -399 -204 -403 5 -5 410 14 462 21 l51 6 77 127 c166 274 393 538 591 687 108 82 287 174 382 198 96 24 176 29 254 17 41 -6 76 -9 79 -6 11 10 -17 117 -46 180 -37 77 -78 124 -139 157 -102 56 -271 78 -398 54z" fill="#c4c4c4"/>
<path d="M15045 9505 c-334 -63 -706 -384 -1010 -874 -127 -203 -308 -553 -294 -565 6 -5 392 12 454 19 52 7 52 7 91 73 188 324 451 628 673 781 107 73 249 142 341 166 72 19 196 24 278 12 l52 -8 0 31 c0 72 -71 222 -131 277 -38 35 -133 74 -217 89 -94 16 -146 16 -237 -1z" fill="#c4c4c4"/>
<path d="M18835 9510 c-242 -27 -450 -144 -701 -394 -229 -230 -408 -496 -598 -888 -52 -106 -114 -245 -140 -309 -174 -444 -303 -947 -368 -1438 -30 -228 -32 -670 -5 -836 39 -227 107 -394 199 -486 46 -46 124 -96 134 -86 3 3 -2 34 -10 71 -47 199 -60 544 -31 821 77 759 328 1568 671 2161 256 444 606 805 899 927 142 59 301 84 430 68 44 -5 81 -8 83 -6 3 2 -3 37 -12 77 -31 138 -89 228 -176 273 -72 37 -251 59 -375 45z" fill="#c4c4c4"/>
<path d="M23780 9510 c-238 -28 -444 -144 -685 -385 -221 -221 -376 -445 -560 -810 -298 -592 -503 -1294 -570 -1955 -22 -209 -16 -584 10 -730 40 -221 104 -377 190 -465 46 -47 131 -103 141 -92 2 2 -5 44 -15 93 -31 145 -42 267 -42 474 1 793 311 1864 751 2588 211 348 507 656 757 790 148 79 358 122 503 104 41 -5 77 -8 79 -6 11 10 -22 135 -49 191 -63 128 -150 184 -318 203 -95 11 -98 11 -192 0z" fill="#c4c4c4"/>
<path d="M28385 9505 c-348 -63 -721 -395 -1046 -930 -69 -114 -273 -504 -267 -510 5 -4 406 13 463 20 48 6 52 9 79 57 55 97 204 314 283 414 107 132 287 304 402 382 107 74 249 143 341 167 72 19 196 24 279 12 l54 -8 -7 53 c-8 64 -61 181 -105 231 -44 49 -140 95 -237 112 -95 17 -147 17 -239 0z" fill="#c4c4c4"/>
<path d="M5535 9500 c-182 -24 -390 -142 -597 -339 -601 -570 -1111 -1766 -1209 -2833 -17 -186 -7 -532 19 -678 57 -312 169 -545 343 -715 39 -38 68 -61 64 -50 -101 265 -136 466 -136 780 0 648 216 1477 568 2180 205 410 456 757 703 973 283 248 566 346 797 277 l45 -14 -7 37 c-39 212 -188 351 -409 381 -85 12 -93 12 -181 1z" fill="#c4c4c4"/>
<path d="M1977 9073 c-9 -15 -406 -1480 -496 -1828 -269 -1045 -351 -1464 -351 -1790 0 -271 66 -486 175 -570 33 -24 136 -77 142 -72 1 2 -3 34 -9 72 -14 90 -4 386 17 525 76 496 401 1781 873 3458 l29 102 -96 29 c-289 88 -277 85 -284 74z" fill="#c4c4c4"/>
<path d="M24791 7768 c-61 -192 -894 -3268 -887 -3275 6 -6 287 141 380 198 l89 54 44 165 c104 388 425 1562 583 2135 95 341 173 624 173 628 2 7 -342 126 -365 127 -3 0 -11 -15 -17 -32z" fill="#c4c4c4"/>
<path d="M25872 5299 c-412 -605 -978 -1103 -1570 -1381 -142 -67 -349 -147 -499 -195 l-122 -38 -21 -70 c-108 -361 -275 -837 -422 -1205 -381 -950 -823 -1497 -1324 -1642 -68 -20 -100 -23 -234 -22 -183 1 -265 19 -402 87 -49 24 -88 40 -88 37 0 -17 105 -179 156 -241 139 -170 335 -262 590 -276 222 -13 391 39 613 188 351 234 694 745 984 1464 147 364 251 658 419 1184 l33 103 145 48 c533 175 928 403 1356 782 220 194 510 518 638 714 l26 40 -38 90 c-49 112 -88 229 -122 364 l-26 104 -92 -135z" fill="#c4c4c4"/>
<path d="M16283 5245 c-146 -218 -243 -338 -422 -516 -414 -413 -789 -609 -1288 -674 -167 -22 -469 -22 -616 -1 -310 45 -552 148 -751 320 l-60 51 38 -60 c108 -169 270 -351 396 -442 267 -193 554 -273 980 -273 473 0 820 97 1165 325 301 199 558 453 789 777 l86 120 -31 57 c-50 91 -117 254 -145 354 -15 50 -29 97 -33 104 -3 7 -50 -54 -108 -142z" fill="#c4c4c4"/>
<path d="M6733 5221 c-262 -389 -571 -692 -924 -907 -227 -138 -510 -231 -809 -264 -153 -18 -453 -15 -585 5 -307 46 -514 132 -729 303 -74 59 -74 54 -3 -53 209 -311 491 -515 827 -599 183 -46 232 -51 520 -51 301 0 386 9 599 65 357 94 668 286 1002 619 146 147 254 273 347 409 l50 73 -45 97 c-25 53 -68 167 -95 252 -28 85 -53 162 -57 171 -4 12 -31 -20 -98 -120z" fill="#c4c4c4"/>
<path d="M21300 5226 c-203 -374 -488 -699 -780 -888 -251 -163 -441 -222 -715 -222 -244 0 -470 55 -636 155 -43 26 -79 45 -79 42 0 -14 68 -125 116 -189 177 -240 417 -361 782 -396 336 -32 620 56 937 291 217 161 479 468 633 741 l31 55 -36 55 c-52 81 -120 228 -160 349 -19 58 -36 107 -37 107 0 1 -26 -44 -56 -100z" fill="#c4c4c4"/>
<path d="M3060 5183 c-301 -527 -717 -904 -1130 -1025 -152 -44 -329 -58 -489 -38 -182 23 -428 106 -532 181 -16 11 -32 19 -34 17 -9 -9 90 -169 148 -238 80 -95 159 -159 267 -214 273 -141 619 -182 913 -107 145 38 315 122 482 240 182 128 470 450 607 677 l47 79 -63 127 c-35 69 -83 187 -107 262 -24 75 -46 136 -49 136 -3 0 -30 -44 -60 -97z" fill="#c4c4c4"/>
<path d="M18660 4922 c-59 -77 -215 -227 -312 -300 -181 -136 -348 -216 -528 -255 -124 -26 -365 -28 -490 -4 -167 33 -336 103 -432 179 -21 16 -38 26 -38 21 0 -5 20 -41 44 -81 162 -262 366 -420 631 -487 263 -67 571 -50 787 42 95 41 224 116 311 181 93 70 228 191 262 236 l25 33 -46 69 c-66 98 -101 172 -143 300 l-37 111 -34 -45z" fill="#c4c4c4"/>
<path d="M21836 4513 c57 -99 110 -170 188 -251 83 -87 215 -182 251 -182 24 0 854 165 859 171 6 6 84 294 81 297 -1 2 -29 -13 -61 -31 -110 -64 -272 -125 -419 -158 -88 -20 -348 -17 -457 4 -160 32 -293 85 -407 161 -29 20 -55 36 -58 36 -3 0 8 -21 23 -47z" fill="#c4c4c4"/>
<path d="M22800 3494 c-189 -37 -488 -107 -553 -131 -392 -141 -603 -390 -755 -894 -67 -219 -88 -589 -44 -750 43 -160 107 -245 206 -274 76 -23 74 -26 68 79 -16 321 111 784 289 1047 92 137 234 262 385 337 74 37 239 95 315 111 l57 12 76 228 c42 126 76 234 76 240 0 14 -26 13 -120 -5z" fill="#c4c4c4"/>
</g>
</svg>