<?xml version="1.0" encoding="utf-8"?>
<!-- Generator: Adobe Illustrator 19.1.0, SVG Export Plug-In . SVG Version: 6.00 Build 0)  -->
<svg version="1.1" id="Calque_1" xmlns="http://www.w3.org/2000/svg" xmlns:xlink="http://www.w3.org/1999/xlink" x="0px" y="0px"
	 width="55px" height="55px" viewBox="-222 223 55 55" style="enable-background:new -222 223 55 55;" xml:space="preserve">
<style type="text/css">
	.st0{fill:#E4DBD4;}
</style>
<g id="Layer_3">
</g>
<g id="Layer_2">
	<g>
		<path class="st0" d="M-194.5,226c13.5,0,24.5,11,24.5,24.5s-11,24.5-24.5,24.5s-24.5-11-24.5-24.5S-208,226-194.5,226 M-194.5,223
			c-15.2,0-27.5,12.3-27.5,27.5c0,15.2,12.3,27.5,27.5,27.5s27.5-12.3,27.5-27.5C-167,235.3-179.3,223-194.5,223L-194.5,223z"/>
		<g>
			<path id="facebook-circle-outline-icon" class="st0" d="M-197,247h-2.1v3.4h2.1v10h4v-10h2.8l0.3-3.4h-3.1c0,0,0-1.3,0-1.9
				c0-0.8,0.2-1.1,0.9-1.1c0.6,0,2.2,0,2.2,0v-3.5c0,0-2.3,0-2.8,0c-3,0-4.3,1.3-4.3,3.8C-197,246.5-197,247-197,247z"/>
		</g>
	</g>
</g>
</svg>
