<?xml version="1.0" encoding="utf-8"?>
<!-- Generator: Adobe Illustrator 19.1.0, SVG Export Plug-In . SVG Version: 6.00 Build 0)  -->
<svg version="1.1" id="Layer_1" xmlns="http://www.w3.org/2000/svg" xmlns:xlink="http://www.w3.org/1999/xlink" x="0px" y="0px"
	 width="208.2px" height="26px" viewBox="-145 238 208.2 26" style="enable-background:new -145 238 208.2 26;"
	 xml:space="preserve">
<style type="text/css">
	.st0{fill:#E4DBD4;}
</style>
<g>
	<path class="st0" d="M-29.4,245.2c-1.9,0-3.6-1.6-3.6-3.6s1.6-3.6,3.6-3.6s3.6,1.6,3.6,3.6C-25.9,243.6-27.5,245.2-29.4,245.2z
		 M-29.4,238.6c-1.7,0-3,1.3-3,3s1.3,3,3,3s3-1.4,3-3C-26.4,240-27.9,238.6-29.4,238.6z M-28.5,243.7l-1-1.6h-0.7v1.6h-0.6v-4.1h1.7
		c0.6,0,1.4,0.5,1.4,1.2c0,0.9-0.8,1.2-1,1.2l1.1,1.7C-27.8,243.7-28.5,243.7-28.5,243.7z M-29.1,240.1h-1.1v1.4h1
		c0.4,0,0.7-0.3,0.7-0.6C-28.4,240.4-28.9,240.1-29.1,240.1z"/>
	<path class="st0" d="M-145,251.4c0-7.6,5.7-12.7,13.2-12.7c5.9,0,9.1,3.3,10.6,6.5l-5.5,2.6c-0.7-2-2.7-3.6-5.2-3.6
		c-4,0-6.8,3.1-6.8,7c0,3.9,2.8,7,6.8,7c2.3,0,4.4-1.6,5.3-3.5l5.5,2.6c-1.6,3.1-4.7,6.6-10.6,6.6C-139.3,264-145,258.9-145,251.4z"
		/>
	<rect x="-113.9" y="239.1" class="st0" width="6.3" height="24.4"/>
	<g>
		<rect x="-86.8" y="249.4" class="st0" width="6.8" height="14.1"/>
	</g>
	<path class="st0" d="M-74.5,245.1h-17.7v18.4h-6.3v-24.4h8H-76h2.8c0,0,4.9-0.1,4.9,5.5v19h-6.3L-74.5,245.1L-74.5,245.1z"/>
	<path class="st0" d="M-48.3,238.7c-7.5,0-13,5.2-13,12.6s5.6,12.6,13,12.6s13-5.2,13-12.6S-40.8,238.7-48.3,238.7z M-48.3,258.4
		c-4.1,0-6.7-3.1-6.7-7c0-4,2.6-7,6.7-7s6.7,3.1,6.7,7C-41.6,255.3-44.2,258.4-48.3,258.4z"/>
	<g>
		<path class="st0" d="M-13.6,251.7c0-2.8,2-4.6,4.7-4.6c1.9,0,3.1,1,3.7,2.1l-1.7,0.8c-0.4-0.7-1.2-1.3-2-1.3c-1.7,0-2.8,1.2-2.8,3
			s1.2,3,2.8,3c0.9,0,1.7-0.6,2-1.3l1.7,0.7c-0.6,1.1-1.8,2.2-3.7,2.2C-11.6,256.4-13.6,254.4-13.6,251.7z"/>
		<path class="st0" d="M10.6,256.2l-0.6-1.5H6.2l-0.6,1.5h-2l3.4-8.9h2.4l3.4,8.9H10.6z M8.1,249.1l-1.4,3.8h2.8L8.1,249.1z"/>
		<path class="st0" d="M22.9,256.2v-8.9h6.3v1.7h-4.4v1.9h4.3v1.7h-4.3v3.7h-1.9V256.2z"/>
		<path class="st0" d="M39.5,256.2v-8.9h6.3v1.7h-4.4v1.9h4.3v1.7h-4.3v3.7h-1.9V256.2z"/>
		<path class="st0" d="M56.9,256.2v-8.9h6.3v1.7h-4.4v1.9h4.3v1.7h-4.3v2h4.4v1.7h-6.3V256.2z"/>
	</g>
</g>
</svg>
