<svg xmlns="http://www.w3.org/2000/svg" version="1.0" width="3209.000000pt" height="1615.000000pt" viewBox="0 0 3209.000000 1615.000000" preserveAspectRatio="xMidYMid meet">

<g transform="translate(0.000000,1615.000000) scale(0.100000,-0.100000)" fill="#ffffff" stroke="none">
<path d="M21965 15954 c-311 -18 -444 -27 -590 -40 -2504 -219 -4821 -1148 -6638 -2662 -1474 -1228 -2620 -2836 -3387 -4752 -109 -274 -193 -506 -360 -1005 -301 -899 -398 -1154 -556 -1466 -205 -405 -406 -692 -655 -934 -293 -285 -518 -409 -834 -460 -105 -17 -380 -20 -475 -4 -222 36 -400 150 -527 339 -180 268 -249 549 -247 1010 1 379 63 789 175 1161 l42 136 361 6 c223 3 413 11 498 21 727 82 1271 314 1595 678 313 354 460 903 353 1321 -71 280 -272 537 -515 659 -77 40 -216 86 -328 110 -136 29 -372 31 -497 5 -465 -98 -909 -423 -1311 -960 -354 -472 -660 -1097 -843 -1722 -79 -270 -285 -849 -386 -1085 -216 -506 -468 -907 -745 -1185 -291 -294 -572 -448 -900 -495 -123 -17 -378 -12 -485 10 -364 74 -619 401 -712 910 -26 146 -36 492 -19 678 98 1067 608 2263 1209 2833 275 261 530 372 774 339 127 -18 201 -52 279 -129 118 -118 155 -242 147 -495 l-5 -151 325 -83 c179 -45 326 -81 328 -80 1 2 8 50 14 107 18 154 8 478 -19 603 -39 179 -111 346 -200 467 -57 76 -186 204 -251 248 -110 75 -282 144 -445 179 -112 24 -370 24 -480 0 -522 -114 -1017 -510 -1450 -1161 -142 -214 -222 -355 -351 -620 -162 -335 -264 -603 -435 -1153 -213 -686 -447 -1268 -655 -1628 -310 -538 -656 -820 -984 -802 -122 7 -231 66 -289 157 -126 196 -145 534 -56 1016 94 514 329 1434 781 3063 46 167 84 309 84 316 0 10 -613 201 -645 201 -5 0 -17 -27 -26 -60 -433 -1577 -716 -2662 -813 -3115 -129 -606 -158 -1049 -90 -1380 60 -290 206 -538 400 -676 176 -126 476 -214 724 -214 90 0 240 22 330 48 413 121 829 498 1130 1025 30 53 57 97 60 97 3 0 24 -60 48 -133 88 -275 222 -497 412 -687 237 -237 471 -351 835 -405 132 -20 432 -23 585 -5 299 33 582 126 809 264 354 215 657 513 927 910 l93 138 11 -44 c29 -111 105 -320 149 -413 107 -220 294 -450 480 -591 273 -205 664 -301 1119 -274 588 35 1011 235 1467 694 272 273 496 593 710 1016 175 346 379 881 615 1610 113 348 215 637 325 915 717 1817 1786 3340 3165 4506 1443 1220 3221 2048 5172 2408 2189 404 4492 193 6298 -576 1325 -565 2402 -1416 3064 -2421 827 -1257 1019 -2735 564 -4342 -89 -314 -379 -1152 -489 -1414 -79 -185 -246 -511 -346 -672 -45 -71 -123 -186 -174 -253 -157 -211 -426 -471 -606 -587 -145 -93 -328 -161 -516 -190 -144 -23 -442 -15 -551 15 -173 46 -301 134 -410 278 -286 379 -356 966 -211 1761 29 155 83 387 120 508 l25 81 367 6 c467 7 699 33 1013 112 748 188 1193 551 1384 1129 115 348 109 686 -18 961 -94 203 -264 383 -451 477 -77 40 -216 86 -328 110 -136 29 -372 31 -496 5 -265 -57 -521 -185 -781 -393 -394 -315 -810 -900 -1096 -1539 -97 -219 -142 -338 -281 -750 -129 -384 -278 -791 -358 -980 -123 -291 -323 -653 -487 -883 -177 -247 -461 -551 -668 -716 -170 -135 -476 -323 -653 -401 -52 -22 -58 -23 -53 -8 3 10 66 248 141 528 158 593 495 1827 689 2528 75 269 136 494 136 501 0 14 -631 219 -641 208 -3 -4 -88 -299 -188 -657 -163 -582 -195 -684 -303 -975 -142 -381 -190 -496 -292 -697 -158 -311 -282 -491 -471 -679 -108 -108 -131 -126 -215 -168 -117 -57 -218 -75 -335 -59 -248 35 -381 210 -450 593 -26 146 -32 521 -10 730 67 661 272 1363 570 1955 184 365 339 589 560 810 248 248 446 357 701 386 102 11 240 -2 319 -32 174 -65 257 -286 225 -599 -6 -63 -12 -124 -13 -135 -2 -17 34 -29 327 -112 181 -51 332 -91 334 -88 16 16 34 187 39 375 4 174 2 235 -11 323 -44 276 -133 470 -296 641 -135 142 -277 223 -488 279 -112 29 -126 30 -327 31 -289 1 -410 -26 -660 -148 -247 -122 -460 -281 -685 -512 -273 -281 -481 -583 -686 -994 -190 -382 -257 -560 -478 -1270 -242 -781 -496 -1397 -728 -1771 -143 -229 -316 -429 -474 -546 -319 -236 -676 -193 -784 94 -99 264 -86 594 45 1208 100 470 458 1837 765 2925 314 1114 730 2631 730 2665 0 16 16 11 -368 120 -160 46 -276 74 -281 69 -5 -5 -136 -470 -291 -1034 -156 -564 -285 -1033 -289 -1042 -5 -14 -15 -10 -66 29 -124 92 -339 178 -510 203 -105 15 -327 12 -435 -5 -454 -74 -965 -433 -1367 -961 -297 -390 -568 -933 -754 -1509 -147 -457 -330 -983 -417 -1201 -156 -388 -391 -806 -606 -1074 -148 -185 -386 -408 -539 -508 -154 -99 -336 -168 -530 -198 -143 -23 -442 -15 -549 14 -159 43 -294 131 -392 254 -190 238 -280 525 -302 958 -16 327 53 832 174 1275 l38 140 365 6 c573 11 881 56 1276 189 567 192 929 517 1107 993 143 384 137 761 -17 1061 -153 298 -391 469 -760 548 -136 29 -372 31 -497 5 -338 -72 -671 -268 -978 -575 -600 -598 -1101 -1607 -1301 -2618 -69 -349 -96 -646 -88 -1002 7 -364 53 -630 153 -898 176 -473 508 -822 908 -953 216 -71 361 -93 621 -93 652 0 1111 197 1606 691 178 178 275 296 420 513 56 84 103 155 104 156 2 2 13 -29 25 -70 54 -190 141 -383 232 -516 219 -318 513 -466 928 -465 176 0 289 19 425 72 218 84 480 280 651 487 l50 61 28 -91 c57 -188 151 -348 279 -476 129 -129 297 -212 529 -261 139 -30 392 -32 518 -5 466 101 920 497 1248 1089 l60 107 27 -87 c121 -390 368 -693 663 -813 350 -142 776 -108 1111 89 29 18 55 31 56 29 1 -2 -16 -69 -38 -150 -28 -101 -45 -149 -56 -152 -9 -3 -211 -43 -449 -91 -542 -107 -740 -166 -962 -287 -264 -143 -507 -378 -649 -626 -91 -160 -187 -408 -245 -639 -135 -530 -73 -1146 147 -1473 135 -201 274 -305 482 -361 120 -33 358 -33 469 -1 501 145 943 692 1324 1642 147 368 314 844 422 1205 l21 70 122 38 c150 48 357 128 499 195 592 278 1158 776 1570 1381 l92 135 26 -104 c75 -299 178 -519 338 -725 306 -396 693 -568 1272 -567 652 1 1112 201 1610 701 208 209 350 395 530 691 108 179 290 546 369 745 151 380 377 1027 480 1374 477 1599 379 3125 -285 4461 -373 749 -883 1386 -1574 1964 -687 575 -1543 1057 -2504 1411 -976 358 -1962 564 -3126 651 -200 15 -1210 28 -1385 18z m-12193 -6560 c156 -40 234 -120 283 -289 23 -76 16 -221 -15 -320 -24 -79 -95 -224 -140 -291 -79 -114 -211 -225 -356 -297 -175 -88 -486 -164 -818 -202 -121 -14 -546 -37 -554 -30 -1 1 29 66 68 144 246 498 521 870 798 1078 268 202 500 268 734 207z m5760 12 c84 -15 179 -54 217 -89 79 -73 131 -205 131 -335 0 -253 -168 -558 -388 -705 -212 -141 -531 -236 -958 -282 -137 -15 -534 -36 -543 -29 -7 7 55 141 136 290 298 554 603 899 943 1069 97 49 140 64 225 80 91 17 143 17 237 1z m3836 -12 c149 -33 218 -108 263 -282 26 -103 26 -290 -1 -449 -21 -119 -80 -345 -151 -571 -21 -68 -74 -270 -119 -450 -179 -728 -184 -743 -327 -1121 -183 -486 -269 -678 -416 -931 -135 -231 -362 -487 -508 -573 -166 -97 -369 -112 -526 -37 -157 74 -258 258 -310 565 -27 166 -25 608 5 836 65 491 194 994 368 1438 102 257 296 629 432 826 187 272 424 510 632 635 207 125 435 164 658 114z m9506 11 c97 -17 193 -63 237 -112 17 -20 48 -70 67 -111 63 -133 55 -308 -23 -494 -94 -222 -245 -383 -461 -491 -175 -88 -486 -164 -818 -202 -124 -14 -547 -37 -554 -30 -6 6 198 396 267 510 282 464 581 760 898 886 138 56 251 68 387 44z m-5704 -6004 c0 -40 -209 -633 -337 -956 -152 -385 -275 -620 -427 -823 -182 -241 -334 -326 -497 -278 -104 30 -167 112 -211 275 -44 161 -23 531 44 750 109 363 264 613 463 748 153 103 289 156 567 217 330 73 398 85 398 67z" fill="#ffffff"/>
<path d="M1823 10108 c-45 -166 -80 -304 -78 -306 8 -8 647 -193 652 -188 6 6 163 583 163 599 0 11 -614 199 -645 197 -5 0 -47 -136 -92 -302z" fill="#ffffff"/>
<path d="M4607 2400 c-72 -13 -171 -63 -222 -115 -53 -52 -100 -144 -115 -224 -13 -71 -13 -1070 0 -1142 25 -134 130 -265 247 -309 124 -46 278 -43 388 8 105 50 175 126 218 240 21 55 22 72 25 592 3 569 0 623 -43 718 -30 66 -110 150 -175 186 -87 47 -210 65 -323 46z m201 -176 c47 -19 97 -67 125 -119 22 -39 22 -48 25 -593 2 -366 -1 -566 -8 -592 -28 -104 -133 -180 -247 -180 -108 0 -183 47 -229 145 l-24 50 0 551 c0 395 3 561 12 585 20 60 61 110 112 140 43 24 62 29 124 29 43 0 88 -6 110 -16z" fill="#ffffff"/>
<path d="M13080 2403 c-153 -26 -279 -128 -333 -269 -22 -58 -22 -69 -25 -613 -2 -367 1 -571 8 -606 38 -183 178 -311 367 -334 251 -30 449 103 498 336 18 84 21 1027 4 1133 -21 130 -108 253 -218 310 -77 39 -212 58 -301 43z m188 -179 c47 -19 97 -67 125 -119 22 -39 22 -48 25 -594 2 -477 1 -560 -13 -600 -35 -107 -128 -171 -245 -171 -80 0 -132 22 -181 77 -72 79 -70 62 -67 694 l3 566 30 49 c21 33 48 60 85 82 48 28 63 32 127 32 44 0 89 -6 111 -16z" fill="#ffffff"/>
<path d="M19237 2394 c-67 -16 -108 -35 -160 -76 -143 -113 -189 -374 -98 -565 51 -107 111 -165 367 -360 192 -147 249 -220 261 -337 18 -172 -93 -316 -243 -316 -145 0 -244 113 -244 280 0 89 -10 100 -95 100 -90 0 -99 -12 -91 -109 4 -42 12 -96 18 -121 28 -116 118 -228 222 -276 105 -48 267 -48 372 0 67 31 152 110 187 174 53 98 73 268 43 378 -31 117 -120 223 -301 359 -323 242 -361 292 -353 469 3 78 8 99 31 139 41 69 94 101 177 105 84 5 127 -8 175 -55 56 -54 78 -112 83 -218 2 -49 9 -96 14 -102 14 -17 150 -17 166 -1 28 28 1 230 -43 321 -85 173 -286 260 -488 211z" fill="#ffffff"/>
<path d="M697 2383 c-4 -3 -7 -406 -7 -895 l0 -888 405 0 406 0 -3 78 -3 77 -310 5 -310 5 0 320 0 320 200 5 200 5 3 74 c2 53 -1 77 -10 82 -7 5 -100 9 -205 9 l-193 0 0 320 0 320 303 0 c166 0 308 4 315 9 9 5 12 29 10 82 l-3 74 -396 3 c-217 1 -398 -1 -402 -5z" fill="#ffffff"/>
<path d="M1857 2383 c-4 -3 -7 -406 -7 -895 l0 -888 90 0 90 0 0 673 c1 556 3 668 14 647 7 -14 122 -316 256 -673 l244 -647 97 0 c79 0 98 3 103 16 3 9 6 406 6 883 0 661 -3 870 -12 879 -17 17 -152 16 -167 -1 -8 -10 -12 -207 -13 -677 l-3 -663 -250 663 c-137 365 -256 669 -263 677 -14 14 -172 19 -185 6z" fill="#ffffff"/>
<path d="M3723 2384 c-10 -5 -13 -157 -13 -713 0 -768 0 -761 -55 -842 -78 -111 -273 -120 -361 -16 -51 61 -58 91 -64 267 l-5 165 -87 3 c-87 3 -87 3 -94 -23 -4 -14 -4 -92 -2 -173 4 -116 9 -159 26 -205 69 -191 248 -293 466 -266 143 18 259 101 320 229 l31 65 0 755 0 755 -75 2 c-41 1 -81 -1 -87 -3z" fill="#ffffff"/>
<path d="M5434 2375 c-4 -8 74 -230 172 -493 l179 -477 5 -400 5 -400 85 0 85 0 5 405 5 405 178 474 c138 369 175 476 166 487 -16 19 -152 19 -171 0 -8 -7 -70 -180 -138 -384 -69 -205 -128 -372 -132 -372 -3 0 -63 171 -133 379 -80 242 -132 381 -141 385 -9 3 -49 6 -90 6 -57 0 -76 -4 -80 -15z" fill="#ffffff"/>
<path d="M7152 2378 c-7 -7 -12 -39 -12 -75 0 -51 3 -64 19 -73 11 -6 89 -10 180 -10 l161 0 0 -810 0 -810 90 0 90 0 0 810 0 810 173 0 c94 0 178 4 185 9 9 5 12 29 10 82 l-3 74 -440 3 c-335 2 -444 -1 -453 -10z" fill="#ffffff"/>
<path d="M8392 2378 c-9 -9 -12 -219 -12 -882 0 -479 4 -877 9 -884 5 -9 31 -12 92 -10 l84 3 3 403 2 402 235 0 235 0 2 -403 3 -402 84 -3 c61 -2 87 1 92 10 5 7 9 405 9 884 0 663 -3 873 -12 882 -12 12 -134 17 -162 6 -14 -5 -16 -51 -16 -405 l0 -399 -235 0 -235 0 0 399 c0 354 -2 400 -16 405 -28 11 -150 6 -162 -6z" fill="#ffffff"/>
<path d="M9640 2371 c-12 -24 -14 -1739 -2 -1759 7 -9 95 -12 408 -10 l399 3 0 75 0 75 -312 3 -313 2 0 325 0 325 203 2 202 3 3 68 c2 42 -2 74 -9 83 -9 11 -51 14 -205 14 l-194 0 0 320 0 320 303 0 c222 0 306 3 315 12 7 7 12 40 12 79 0 52 -4 68 -16 73 -9 3 -188 6 -399 6 -370 0 -385 -1 -395 -19z" fill="#ffffff"/>
<path d="M11371 2377 c-8 -11 -10 -238 -9 -893 l3 -879 90 0 90 0 5 695 5 695 36 -75 c198 -407 238 -488 247 -494 6 -3 17 -4 24 -1 8 3 75 132 149 286 l134 281 5 -694 c3 -381 6 -694 8 -695 1 -2 43 -3 92 -3 l90 0 0 889 c0 801 -2 889 -16 895 -23 9 -147 7 -161 -2 -7 -4 -78 -142 -157 -305 -80 -163 -149 -297 -153 -296 -4 0 -75 136 -158 302 l-150 302 -81 3 c-60 2 -84 -1 -93 -11z" fill="#ffffff"/>
<path d="M13997 2383 c-4 -3 -7 -406 -7 -895 l0 -888 90 0 90 0 0 697 c0 429 4 693 9 687 5 -5 68 -130 140 -278 71 -148 138 -274 147 -279 12 -7 20 -6 28 5 7 9 70 138 141 286 72 149 133 271 138 272 4 0 7 -313 7 -695 l0 -695 90 0 90 0 -2 893 -3 892 -80 3 c-44 1 -85 -1 -91 -5 -6 -5 -76 -142 -157 -305 -80 -164 -148 -298 -152 -298 -3 0 -70 129 -147 288 -78 158 -148 295 -156 305 -12 13 -31 17 -92 17 -42 0 -80 -3 -83 -7z" fill="#ffffff"/>
<path d="M15397 2383 c-4 -3 -7 -406 -7 -895 l0 -888 403 2 402 3 0 75 0 75 -312 3 -313 2 0 325 0 325 203 2 202 3 3 68 c2 42 -2 74 -9 83 -9 11 -51 14 -205 14 l-194 0 0 320 0 320 303 0 c222 0 306 3 315 12 7 7 12 40 12 79 0 52 -4 68 -16 73 -21 8 -779 8 -787 -1z" fill="#ffffff"/>
<path d="M16550 2371 c-12 -24 -14 -1739 -1 -1759 5 -9 31 -12 92 -10 l84 3 5 669 5 669 229 -609 c127 -335 241 -637 254 -672 l24 -62 99 0 99 0 -2 893 -3 892 -65 3 c-35 2 -75 0 -87 -3 l-23 -5 0 -673 c0 -386 -4 -666 -9 -657 -5 8 -120 310 -257 670 -136 360 -252 658 -258 662 -6 4 -48 8 -93 8 -71 0 -84 -3 -93 -19z" fill="#ffffff"/>
<path d="M17783 2383 c-21 -8 -18 -149 3 -157 9 -3 87 -6 175 -6 l159 0 2 -807 3 -808 90 0 90 0 3 808 2 807 169 0 c93 0 176 3 185 6 13 5 16 22 16 79 0 57 -3 74 -16 79 -19 7 -863 7 -881 -1z" fill="#ffffff"/>
</g>
</svg>