<?xml version="1.0" encoding="utf-8"?>
<!-- Generator: Adobe Illustrator 27.9.0, SVG Export Plug-In . SVG Version: 6.00 Build 0)  -->
<svg version="1.1" id="Layer_1" xmlns="http://www.w3.org/2000/svg" xmlns:xlink="http://www.w3.org/1999/xlink" x="0px" y="0px"
	 viewBox="0 0 3174 1634" style="enable-background:new 0 0 3174 1634;" xml:space="preserve">
<style type="text/css">
	.st0{fill:#FFFFFF;}
</style>
<g transform="translate(0.000000,1634.000000) scale(0.100000,-0.100000)">
	<path class="st0" d="M21700,15379c-2898-133-5545-1263-7470-3189c-984-984-1771-2158-2362-3520c-173-398-327-813-488-1310
		c-236-729-440-1264-615-1610c-214-423-438-743-710-1016c-456-459-879-659-1467-694c-495-29-894,81-1183,326l-69,58l24-40
		c89-148,250-335,377-436c142-112,334-205,516-248c288-68,706-68,1019,0c388,85,759,307,1109,666c155,159,260,291,394,493
		c133,202,205,328,324,569c167,340,391,938,621,1662c466,1462,1210,2845,2129,3955c1095,1321,2457,2335,4051,3015
		c1757,749,3747,1062,5690,895c2007-173,3770-858,5059-1965c149-128,428-399,566-550l78-85l-91,120c-398,528-913,1006-1530,1419
		c-1339,897-2994,1398-4912,1486C22514,15391,21958,15391,21700,15379z"/>
	<path class="st0" d="M29952,12625c279-423,510-903,661-1370c372-1155,365-2404-24-3706c-103-347-329-994-480-1374
		c-79-199-261-566-369-745c-180-296-322-482-530-691c-349-350-653-536-1034-634c-184-47-356-67-576-67c-445-1-774,101-1035,320
		c-43,35-74,58-69,51c157-261,354-461,574-582c223-122,479-177,830-177c533,0,900,119,1305,425c266,201,499,452,705,760
		c243,363,408,696,600,1210c418,1116,587,1768,656,2535c21,229,24,768,5,985c-94,1109-463,2079-1119,2950
		C29892,12727,29864,12758,29952,12625z"/>
	<path class="st0" d="M20876,11553c-3-10-67-243-141-518c-149-547-346-1255-515-1855c-306-1086-665-2455-765-2925
		c-125-584-142-923-59-1168c32-94,65-147,120-195c43-38,128-81,139-70c3,3,0,52-6,109c-33,314,42,725,346,1909
		c189,736,296,1131,674,2475c143,509,462,1675,554,2021l35,131l-182,51c-100,29-185,52-188,52C20884,11570,20879,11562,20876,11553z
		"/>
	<path class="st0" d="M2226,9988c-9-29-29-102-45-162c-17-59-32-110-35-113c-2-2-57,11-123,30c-65,20-126,37-137,39
		c-16,3-24-15-56-132c-25-91-33-137-26-141c26-15,638-191,643-185c16,15,170,608,159,612c-24,8-356,104-361,104
		C2243,10040,2234,10016,2226,9988z"/>
	<path class="st0" d="M24930,9578c0-3,14-48,31-100c16-51,39-147,51-213c18-105,20-147,15-340c-5-192-23-364-39-380
		c-2-3-76,15-164,40c-87,25-162,45-166,45c-5,0-8-20-8-45c0-24-5-90-11-145c-7-55-10-102-8-105c9-9,652-185,657-180
		c16,16,33,184,39,370c6,234-7,362-53,523c-32,113-109,270-172,352C25054,9463,24930,9591,24930,9578z"/>
	<path class="st0" d="M10424,9544c68-168,95-369,76-560c-34-335-174-666-383-902c-324-364-868-596-1595-678c-85-10-275-18-498-21
		l-361-6l-42-136c-112-372-174-782-175-1161c-1-252,7-350,46-529c56-264,194-522,348-651l48-40l-29,74c-183,471-149,1230,88,1997
		l17,56l361,6c368,6,525,17,765,58c573,96,1064,332,1326,636c275,320,414,736,382,1139c-19,243-99,435-261,626
		C10472,9527,10411,9578,10424,9544z"/>
	<path class="st0" d="M16256,9488c75-217,81-462,19-725c-95-399-319-725-650-945c-254-169-640-311-1025-377c-235-40-399-53-769-60
		l-365-6l-38-140c-121-443-190-948-174-1275c22-437,114-726,306-962c53-66,130-138,130-123c0,4-14,46-31,93c-63,179-95,364-105,612
		c-15,358,64,893,196,1341l20,66l363,6c478,7,716,34,1042,117c525,133,921,375,1154,705c122,173,227,429,267,651
		c21,117,24,364,5,464c-26,140-86,290-165,408c-48,73-157,196-187,212C16233,9559,16234,9553,16256,9488z"/>
	<path class="st0" d="M29575,9544c107-258,107-594-1-920c-191-578-636-941-1384-1129c-314-79-546-105-1013-112l-367-6l-25-81
		c-125-413-206-968-191-1321c16-398,87-658,243-894c54-81,179-218,189-208c3,2-7,35-21,73c-35,94-70,237-92,374
		c-21,142-24,527-4,700c31,276,105,647,172,866l31,101l362,6c471,7,711,34,1031,114c287,72,563,189,772,329
		c347,231,580,598,659,1039c24,132,22,363-4,485c-39,188-129,363-260,510C29605,9544,29560,9578,29575,9544z"/>
	<path class="st0" d="M6700,9539c0-3,13-42,30-86c53-148,71-258,77-479c5-172-7-398-22-412c-2-2-79,16-172,41l-168,44v-106
		c0-58-4-129-8-156l-7-50l326-83c179-46,327-82,329-80s9,50,15,108c18,153,8,476-20,603c-38,179-119,363-213,484
		C6824,9423,6700,9550,6700,9539z"/>
	<path class="st0" d="M9235,9506c-376-72-771-441-1109-1038c-67-119-209-399-204-403c5-5,410,14,462,21l51,6l77,127
		c166,274,393,538,591,687c108,82,287,174,382,198c96,24,176,29,254,17c41-6,76-9,79-6c11,10-17,117-46,180c-37,77-78,124-139,157
		C9531,9508,9362,9530,9235,9506z"/>
	<path class="st0" d="M15045,9505c-334-63-706-384-1010-874c-127-203-308-553-294-565c6-5,392,12,454,19c52,7,52,7,91,73
		c188,324,451,628,673,781c107,73,249,142,341,166c72,19,196,24,278,12l52-8v31c0,72-71,222-131,277c-38,35-133,74-217,89
		C15188,9522,15136,9522,15045,9505z"/>
	<path class="st0" d="M18835,9510c-242-27-450-144-701-394c-229-230-408-496-598-888c-52-106-114-245-140-309
		c-174-444-303-947-368-1438c-30-228-32-670-5-836c39-227,107-394,199-486c46-46,124-96,134-86c3,3-2,34-10,71
		c-47,199-60,544-31,821c77,759,328,1568,671,2161c256,444,606,805,899,927c142,59,301,84,430,68c44-5,81-8,83-6c3,2-3,37-12,77
		c-31,138-89,228-176,273C19138,9502,18959,9524,18835,9510z"/>
	<path class="st0" d="M23780,9510c-238-28-444-144-685-385c-221-221-376-445-560-810c-298-592-503-1294-570-1955
		c-22-209-16-584,10-730c40-221,104-377,190-465c46-47,131-103,141-92c2,2-5,44-15,93c-31,145-42,267-42,474
		c1,793,311,1864,751,2588c211,348,507,656,757,790c148,79,358,122,503,104c41-5,77-8,79-6c11,10-22,135-49,191
		c-63,128-150,184-318,203C23877,9521,23874,9521,23780,9510z"/>
	<path class="st0" d="M28385,9505c-348-63-721-395-1046-930c-69-114-273-504-267-510c5-4,406,13,463,20c48,6,52,9,79,57
		c55,97,204,314,283,414c107,132,287,304,402,382c107,74,249,143,341,167c72,19,196,24,279,12l54-8l-7,53c-8,64-61,181-105,231
		c-44,49-140,95-237,112C28529,9522,28477,9522,28385,9505z"/>
	<path class="st0" d="M5535,9500c-182-24-390-142-597-339c-601-570-1111-1766-1209-2833c-17-186-7-532,19-678
		c57-312,169-545,343-715c39-38,68-61,64-50c-101,265-136,466-136,780c0,648,216,1477,568,2180c205,410,456,757,703,973
		c283,248,566,346,797,277l45-14l-7,37c-39,212-188,351-409,381C5631,9511,5623,9511,5535,9500z"/>
	<path class="st0" d="M1977,9073c-9-15-406-1480-496-1828c-269-1045-351-1464-351-1790c0-271,66-486,175-570c33-24,136-77,142-72
		c1,2-3,34-9,72c-14,90-4,386,17,525c76,496,401,1781,873,3458l29,102l-96,29C1972,9087,1984,9084,1977,9073z"/>
	<path class="st0" d="M24791,7768c-61-192-894-3268-887-3275c6-6,287,141,380,198l89,54l44,165c104,388,425,1562,583,2135
		c95,341,173,624,173,628c2,7-342,126-365,127C24805,7800,24797,7785,24791,7768z"/>
	<path class="st0" d="M25872,5299c-412-605-978-1103-1570-1381c-142-67-349-147-499-195l-122-38l-21-70c-108-361-275-837-422-1205
		c-381-950-823-1497-1324-1642c-68-20-100-23-234-22c-183,1-265,19-402,87c-49,24-88,40-88,37c0-17,105-179,156-241
		c139-170,335-262,590-276c222-13,391,39,613,188c351,234,694,745,984,1464c147,364,251,658,419,1184l33,103l145,48
		c533,175,928,403,1356,782c220,194,510,518,638,714l26,40l-38,90c-49,112-88,229-122,364l-26,104L25872,5299z"/>
	<path class="st0" d="M16283,5245c-146-218-243-338-422-516c-414-413-789-609-1288-674c-167-22-469-22-616-1
		c-310,45-552,148-751,320l-60,51l38-60c108-169,270-351,396-442c267-193,554-273,980-273c473,0,820,97,1165,325
		c301,199,558,453,789,777l86,120l-31,57c-50,91-117,254-145,354c-15,50-29,97-33,104C16388,5394,16341,5333,16283,5245z"/>
	<path class="st0" d="M6733,5221c-262-389-571-692-924-907c-227-138-510-231-809-264c-153-18-453-15-585,5c-307,46-514,132-729,303
		c-74,59-74,54-3-53c209-311,491-515,827-599c183-46,232-51,520-51c301,0,386,9,599,65c357,94,668,286,1002,619
		c146,147,254,273,347,409l50,73l-45,97c-25,53-68,167-95,252c-28,85-53,162-57,171C6827,5353,6800,5321,6733,5221z"/>
	<path class="st0" d="M21300,5226c-203-374-488-699-780-888c-251-163-441-222-715-222c-244,0-470,55-636,155c-43,26-79,45-79,42
		c0-14,68-125,116-189c177-240,417-361,782-396c336-32,620,56,937,291c217,161,479,468,633,741l31,55l-36,55c-52,81-120,228-160,349
		c-19,58-36,107-37,107C21356,5327,21330,5282,21300,5226z"/>
	<path class="st0" d="M3060,5183c-301-527-717-904-1130-1025c-152-44-329-58-489-38c-182,23-428,106-532,181c-16,11-32,19-34,17
		c-9-9,90-169,148-238c80-95,159-159,267-214c273-141,619-182,913-107c145,38,315,122,482,240c182,128,470,450,607,677l47,79
		l-63,127c-35,69-83,187-107,262s-46,136-49,136S3090,5236,3060,5183z"/>
	<path class="st0" d="M18660,4922c-59-77-215-227-312-300c-181-136-348-216-528-255c-124-26-365-28-490-4c-167,33-336,103-432,179
		c-21,16-38,26-38,21s20-41,44-81c162-262,366-420,631-487c263-67,571-50,787,42c95,41,224,116,311,181c93,70,228,191,262,236l25,33
		l-46,69c-66,98-101,172-143,300l-37,111L18660,4922z"/>
	<path class="st0" d="M21836,4513c57-99,110-170,188-251c83-87,215-182,251-182c24,0,854,165,859,171c6,6,84,294,81,297
		c-1,2-29-13-61-31c-110-64-272-125-419-158c-88-20-348-17-457,4c-160,32-293,85-407,161c-29,20-55,36-58,36S21821,4539,21836,4513z
		"/>
	<path class="st0" d="M22800,3494c-189-37-488-107-553-131c-392-141-603-390-755-894c-67-219-88-589-44-750c43-160,107-245,206-274
		c76-23,74-26,68,79c-16,321,111,784,289,1047c92,137,234,262,385,337c74,37,239,95,315,111l57,12l76,228c42,126,76,234,76,240
		C22920,3513,22894,3512,22800,3494z"/>
</g>
</svg>
