<?xml version="1.0" encoding="utf-8"?>
<!-- Generator: Adobe Illustrator 17.1.0, SVG Export Plug-In . SVG Version: 6.00 Build 0)  -->
<!DOCTYPE svg PUBLIC "-//W3C//DTD SVG 1.1//EN" "http://www.w3.org/Graphics/SVG/1.1/DTD/svg11.dtd">
<svg version="1.1" id="Layer_1" xmlns="http://www.w3.org/2000/svg" xmlns:xlink="http://www.w3.org/1999/xlink" x="0px" y="0px"
	 width="225px" height="28px" viewBox="0 0 225 28" enable-background="new 0 0 225 28" xml:space="preserve">
<g>
	<path fill="#FFFFFF" d="M124.9,7.7c-2.1,0-3.9-1.7-3.9-3.9c0-2.2,1.7-3.9,3.9-3.9c2.2,0,3.9,1.7,3.9,3.9C128.7,6,127,7.7,124.9,7.7
		z M124.9,0.6c-1.8,0-3.2,1.4-3.2,3.2c0,1.8,1.4,3.2,3.2,3.2s3.2-1.5,3.2-3.2C128.1,2.1,126.6,0.6,124.9,0.6z M125.9,6.1l-1.1-1.7
		H124v1.7h-0.7V1.7h1.8c0.7,0,1.5,0.5,1.5,1.3c0,1-0.9,1.3-1.1,1.3l1.2,1.8H125.9z M125.2,2.2H124v1.5h1.1c0.4,0,0.8-0.3,0.8-0.7
		C126,2.5,125.5,2.2,125.2,2.2z"/>
	<path fill="#FFFFFF" d="M0,14.4C0,6.2,6.2,0.7,14.3,0.7c6.4,0,9.8,3.6,11.5,7l-5.9,2.8c-0.9-2.1-3.1-3.8-5.7-3.8
		c-4.3,0-7.4,3.3-7.4,7.6c0,4.3,3,7.6,7.4,7.6c2.5,0,4.8-1.7,5.7-3.8l5.9,2.8c-1.7,3.4-5.1,7.1-11.5,7.1C6.2,28,0,22.5,0,14.4z"/>
	<rect x="33.6" y="1.1" fill="#FFFFFF" width="6.8" height="26.4"/>
	<g>
		<rect x="62.9" y="12.3" fill="#FFFFFF" width="7.4" height="15.2"/>
	</g>
	<path fill="#FFFFFF" d="M76.2,7.6H57.1v19.9h-6.8V1.1h8.7h15.7h3c0,0,5.3-0.1,5.3,5.9v20.5h-6.8L76.2,7.6z"/>
	<path fill="#FFFFFF" d="M104.5,0.7c-8.1,0-14.1,5.6-14.1,13.6c0,8,6.1,13.6,14.1,13.6s14.1-5.6,14.1-13.6
		C118.6,6.3,112.6,0.7,104.5,0.7z M104.5,22c-4.4,0-7.2-3.4-7.2-7.6c0-4.3,2.8-7.6,7.2-7.6c4.4,0,7.2,3.3,7.2,7.6
		C111.7,18.6,108.9,22,104.5,22z"/>
	<g>
		<path fill="#FFFFFF" d="M142,14.8c0-3,2.2-5,5.1-5c2.1,0,3.3,1.1,4,2.3l-1.8,0.9c-0.4-0.8-1.3-1.4-2.2-1.4c-1.8,0-3,1.3-3,3.2
			s1.3,3.2,3,3.2c1,0,1.8-0.6,2.2-1.4l1.8,0.8c-0.7,1.2-1.9,2.4-4,2.4C144.2,19.8,142,17.7,142,14.8z"/>
		<path fill="#FFFFFF" d="M168.2,19.6l-0.6-1.6h-4.1l-0.6,1.6h-2.3l3.7-9.6h2.6l3.7,9.6H168.2z M165.5,12l-1.5,4.1h3L165.5,12z"/>
		<path fill="#FFFFFF" d="M181.4,19.6V10h6.8v1.8h-4.8v2h4.7v1.8h-4.7v4H181.4z"/>
		<path fill="#FFFFFF" d="M199.4,19.6V10h6.8v1.8h-4.8v2h4.7v1.8h-4.7v4H199.4z"/>
		<path fill="#FFFFFF" d="M218.2,19.6V10h6.8v1.8h-4.8v2h4.7v1.8h-4.7v2.2h4.8v1.8H218.2z"/>
	</g>
</g>
</svg>
