<?xml version="1.0" encoding="utf-8"?>
<!-- Generator: Adobe Illustrator 17.1.0, SVG Export Plug-In . SVG Version: 6.00 Build 0)  -->
<!DOCTYPE svg PUBLIC "-//W3C//DTD SVG 1.1//EN" "http://www.w3.org/Graphics/SVG/1.1/DTD/svg11.dtd">
<svg version="1.1" id="Calque_1" xmlns="http://www.w3.org/2000/svg" xmlns:xlink="http://www.w3.org/1999/xlink" x="0px" y="0px"
	 width="41px" height="56.6px" viewBox="0 0 41 56.6" style="enable-background:new 0 0 41 56.6;" xml:space="preserve">
<style type="text/css">
	.st0{fill:#E6DED8;stroke:#FFFFFF;stroke-miterlimit:10;}
	.st1{fill:#E6DED8;stroke:#E6DED8;stroke-miterlimit:10;}
</style>
<path class="st0" d="M20.5,56.3c-2.1-2.8-4.2-5.4-6.2-8.2c-3.9-5.3-7.5-10.8-10.4-16.7c-1-2.2-1.9-4.4-2.7-6.7
	C0,21,0.4,17.2,1.8,13.6c3-8.3,10.9-13.4,19.7-13.1C30.6,0.9,38.7,8,40.2,16.9c0.6,3.7,0.1,7.1-1.3,10.5c-2.2,5.4-5.2,10.4-8.4,15.3
	c-3,4.6-6.3,8.9-9.7,13.2C20.7,56,20.6,56.1,20.5,56.3 M20.5,48.9c0.2-0.3,0.3-0.4,0.4-0.6c1.6-2.2,3.2-4.4,4.7-6.6
	c3-4.4,5.8-8.9,8.1-13.7c1-2.1,1.9-4.1,2.1-6.4c0.4-4.8-1.2-8.8-4.6-12.1C24.9,3.4,15.4,3.6,9.3,10c-3.1,3.2-4.5,7.1-4.1,11.6
	c0.2,2.3,1.1,4.3,2.1,6.4c2.3,4.8,5.1,9.4,8.1,13.8C17,44.1,18.8,46.4,20.5,48.9"/>
<path class="st1" d="M20.6,11.6c4.4,0,7.9,3.5,7.9,7.9s-3.5,7.9-8,7.9c-4.4,0-7.8-3.5-7.9-7.9C12.6,15,16.1,11.5,20.6,11.6"/>
</svg>
