<?xml version="1.0" encoding="utf-8"?>
<!-- Generator: Adobe Illustrator 17.1.0, SVG Export Plug-In . SVG Version: 6.00 Build 0)  -->
<!DOCTYPE svg PUBLIC "-//W3C//DTD SVG 1.1//EN" "http://www.w3.org/Graphics/SVG/1.1/DTD/svg11.dtd">
<svg version="1.1" id="Calque_1" xmlns="http://www.w3.org/2000/svg" xmlns:xlink="http://www.w3.org/1999/xlink" x="0px" y="0px"
	 width="84px" height="79.5px" viewBox="0 0 84 79.5" style="enable-background:new 0 0 84 79.5;" xml:space="preserve">
<style type="text/css">
	.st0{clip-path:url(#SVGID_2_);fill:#E6DED8;}
</style>
<g>
	<defs>
		<rect id="SVGID_1_" y="0" width="84" height="79.5"/>
	</defs>
	<clipPath id="SVGID_2_">
		<use xlink:href="#SVGID_1_"  style="overflow:visible;"/>
	</clipPath>
	<path class="st0" d="M79.9,44.8c1.1,3.9,0.7,7.9-1.1,12.2c-2,4.6-5.4,8.7-10.9,12.9c-4.2,3.2-7.9,5-11.6,5.8
		c-1.3,0.3-2.5,0.4-3.7,0.4c-3.2,0-6.1-0.9-8.8-2.8c6.2-3.6,12.3-7.8,19.1-13.2C68.6,55.4,74.2,50.4,79.9,44.8 M81,38.6
		c-6.5,6.7-13.2,12.9-20.4,18.6C53.4,62.9,46,68.1,37.8,72.4c0.1,0.2,0.2,0.3,0.3,0.5c4.1,4.4,8.9,6.7,14.4,6.7
		c1.4,0,2.9-0.1,4.4-0.4c4.9-1,9.2-3.4,13.1-6.4c5-3.9,9.4-8.3,12-14.3c2.6-5.9,2.8-11.9,0.1-17.9C81.8,39.8,81.4,39.3,81,38.6"/>
	<path class="st0" d="M24.5,3.6L24.5,3.6c6.3,0,12.4,1.6,18.1,4.7c4.4,2.4,7.1,5.9,8.2,10.4C43,16.5,35.7,15,28.4,14
		c-5.8-0.7-11.1-1.1-16.2-1.1c-2.3,0-4.6,0.1-6.8,0.2c2.3-5,6.3-7.9,12.1-9C19.8,3.8,22.2,3.6,24.5,3.6 M24.5,0
		c-2.5,0-5.1,0.2-7.7,0.7C9.1,2.1,3.7,6.6,1.2,14.2c-0.3,1-0.5,2-0.7,3c4-0.5,7.9-0.7,11.8-0.7c5.3,0,10.5,0.4,15.7,1.1
		c9.1,1.2,18,3.2,26.8,6c0-0.4,0.1-0.6,0-0.9c-0.2-7.8-3.7-13.8-10.5-17.6C38,1.7,31.4,0,24.5,0"/>
	<path class="st0" d="M64.5,33.4c2.9,0,5.5,0.8,8.1,2.4c-15,8.3-26.7,17.4-36.1,28c-0.2-0.6-0.4-1.2-0.5-1.8
		C35,57.3,36,52.8,39,48.7C44.7,41,51.9,36.1,60.4,34C61.8,33.6,63.2,33.4,64.5,33.4 M64.5,29.9c-1.6,0-3.2,0.2-5,0.6
		c-9.8,2.4-17.5,8.1-23.5,16.1c-3.6,4.8-4.9,10.3-3.6,16.2c0.6,2.6,1.6,5.1,3.3,7.3c11.8-14.6,26.7-25,43.2-33.6
		C74.8,32.3,70,29.9,64.5,29.9"/>
	<path class="st0" d="M3.9,24.9C16.2,28,29.4,29.7,44,30c-4,2.4-7.6,5.4-10.8,8.9c-0.7,0.7-0.9,0.8-1.4,0.8c-0.8,0-1.7,0.1-2.5,0.1
		c-5.4,0-10.2-0.8-14.5-2.6C8.6,34.8,5.1,30.7,3.9,24.9 M0,20.1c0.1,1.6,0,3.1,0.3,4.5c1.2,7.9,5.9,13,13.2,15.9
		c5.1,2,10.4,2.8,15.8,2.8c0.9,0,1.8,0,2.7-0.1c1.7-0.1,2.8-0.7,3.9-2c4.7-5.2,10.4-9.2,17-11.8c1.4-0.5,1.9-1.5,1.6-3.1
		c-1.4,0-2.9,0-4.3,0C33.3,26.5,16.6,24.9,0,20.1"/>
</g>
</svg>
